<svg xmlns="http://www.w3.org/2000/svg" width="22" height="22" viewBox="0 0 22 22" fill="none">
<path d="M5.5999 19.4V14C5.5999 13.3373 6.13716 12.8 6.7999 12.8H15.1999C15.8626 12.8 16.3999 13.3373 16.3999 14V20M13.9999 6.20002L6.7999 6.20002C6.13716 6.20002 5.5999 5.66276 5.5999 5.00002L5.5999 1.40002M19.9974 5.5975L16.4024 2.00255C16.0166 1.61676 15.4934 1.40003 14.9478 1.40002H3.45705C2.3209 1.40002 1.3999 2.32102 1.3999 3.45717V18.5429C1.3999 19.679 2.3209 20.6 3.45705 20.6H18.5428C19.6789 20.6 20.5999 19.679 20.5999 18.5429V7.05211C20.5999 6.50652 20.3832 5.98328 19.9974 5.5975Z" stroke="black" stroke-width="2" stroke-linecap="round"/>
</svg>